<svg 
  width="400" 
  height="100" 
  viewBox="0 0 400 100" 
  fill="none" 
  xmlns="http://www.w3.org/2000/svg">
  <g fill="#F6D3E4">
    <!-- Left decorative swirl -->
    <path d="M20 50 C40  0,  80  0, 100 50 C80 100, 40 100, 20 50 Z" />
    
    <!-- Stylized rose in the middle -->
    <path d="M190 50 
             c0 -5 10 -5 10 -10 
             c0 -5 -10 -5 -10 -10 
             c0 -5 10 -5 10 -10 
             c10 0 20 10 20 20 
             c0 10 -10 20 -20 20 z" />
    
    <!-- Right decorative swirl (mirrored) -->
    <path transform="translate(400,0) scale(-1,1)" d="M20 50 C40  0,  80  0, 100 50 C80 100, 40 100, 20 50 Z" />
  </g>
</svg>
