<?xml version="1.0" standalone="no"?>
<!DOCTYPE svg PUBLIC "-//W3C//DTD SVG 20010904//EN"
 "http://www.w3.org/TR/2001/REC-SVG-20010904/DTD/svg10.dtd">
<svg version="1.0" xmlns="http://www.w3.org/2000/svg"
 width="512.000000pt" height="512.000000pt" viewBox="0 0 512.000000 512.000000"
 preserveAspectRatio="xMidYMid meet">
<metadata>
Created by potrace 1.16, written by Peter Selinger 2001-2019
</metadata>
<g transform="translate(0.000000,512.000000) scale(0.100000,-0.100000)"
fill="currentColor" stroke="none">
<path d="M2599 4985 c-24 -24 -372 -193 -465 -226 -117 -41 -188 -78 -265
-136 l-64 -49 -75 9 c-83 9 -240 -5 -318 -28 -98 -29 -134 -70 -212 -243 l-57
-127 -109 -59 c-60 -32 -145 -74 -189 -93 -119 -51 -441 -134 -548 -141 -48
-2 -87 -9 -87 -13 0 -5 4 -9 9 -9 6 0 37 -25 69 -55 108 -100 128 -189 88
-385 -38 -184 -41 -243 -21 -341 32 -163 98 -280 239 -428 49 -50 76 -86 68
-88 -21 -8 -123 -88 -212 -167 -53 -48 -93 -76 -107 -76 -29 0 -29 0 6 -52 48
-71 81 -163 116 -322 18 -83 45 -189 60 -234 15 -46 24 -90 21 -98 -3 -8 -28
-29 -56 -46 -27 -17 -47 -35 -44 -39 3 -5 32 -22 65 -39 34 -16 104 -54 157
-84 109 -62 218 -101 307 -111 l61 -6 22 -132 c15 -90 23 -176 23 -272 1 -77
4 -150 7 -162 7 -21 9 -21 77 22 87 56 167 88 271 110 122 27 133 22 276 -106
68 -61 147 -136 177 -167 126 -133 280 -349 303 -423 l11 -40 31 29 c64 60
209 123 395 170 106 28 116 29 159 15 67 -20 251 -60 357 -77 177 -29 466 -54
430 -36 -21 10 -523 101 -660 120 -116 16 -118 19 -30 45 44 13 150 51 235 85
165 65 319 110 464 135 102 17 293 20 350 4 50 -14 65 -1 49 40 -10 27 -6 37
43 117 29 48 63 115 76 149 l22 62 79 37 c43 20 143 80 220 133 78 53 156 102
174 109 45 19 90 17 141 -6 28 -13 42 -15 38 -7 -27 65 -38 127 -33 188 6 67
24 122 126 370 94 232 117 383 72 484 -38 86 -122 185 -290 340 l-63 59 37
109 c44 133 50 201 38 487 -9 193 -11 209 -36 265 -16 33 -45 82 -66 110 -61
81 -74 112 -69 167 6 57 33 90 127 153 33 22 61 43 61 48 0 4 -21 7 -47 7 -75
0 -302 28 -365 44 -31 9 -90 27 -130 42 -137 50 -209 66 -279 61 l-66 -4 -5
61 c-7 78 -28 119 -80 154 -36 24 -51 27 -114 26 -73 -1 -73 -1 -84 30 -6 17
-14 63 -16 101 -7 87 10 117 91 171 30 20 54 39 52 40 -7 8 -128 -39 -161 -61
-34 -23 -36 -23 -58 -6 -50 39 -130 31 -211 -21 l-48 -31 -82 16 c-45 9 -102
19 -125 22 -35 6 -64 24 -140 85 -120 97 -148 126 -176 184 -19 40 -24 44 -37
31z m28 -104 c20 -35 64 -78 167 -163 l29 -24 -84 -17 c-145 -28 -280 -111
-361 -219 -11 -15 -19 -15 -60 -6 -71 17 -104 3 -161 -67 l-48 -60 -78 -12
c-140 -22 -181 -43 -257 -134 -37 -43 -70 -79 -74 -79 -27 0 -26 117 0 202 36
119 129 233 252 312 58 36 133 70 238 105 36 12 142 62 235 111 94 49 172 89
175 89 3 1 15 -17 27 -38z m841 -212 c36 0 41 -9 13 -26 -24 -15 -32 -59 -22
-122 l8 -51 -66 48 c-36 26 -92 61 -124 78 l-59 31 54 27 c46 24 60 27 108 21
30 -4 70 -6 88 -6z m-393 -67 c177 -48 337 -144 430 -260 64 -80 114 -186 121
-261 l7 -61 -35 0 c-19 0 -70 -9 -114 -20 l-79 -20 -19 27 c-38 55 -162 170
-222 206 -34 21 -82 41 -105 46 -24 5 -75 16 -114 25 -123 28 -257 14 -370
-38 l-53 -24 -71 26 c-66 26 -70 29 -76 64 -4 20 -3 47 0 60 20 64 148 171
255 212 125 49 301 56 445 18z m-1329 -84 c-9 -13 -29 -45 -46 -73 -83 -141
-337 -321 -492 -350 l-38 -7 16 53 c52 175 109 290 164 329 66 47 157 67 304
69 l108 1 -16 -22z m590 -130 c7 -11 7 -89 0 -96 -6 -6 -166 22 -166 29 0 4
18 23 40 43 32 28 48 36 79 36 22 0 43 -5 47 -12z m1345 -31 c19 -12 40 -35
47 -50 17 -36 27 -158 18 -231 -7 -56 -8 -56 -42 -56 -34 0 -34 0 -34 48 0 68
-22 141 -68 226 -22 41 -38 77 -34 80 14 15 81 4 113 -17z m-2041 -103 c-6
-32 -10 -80 -10 -106 l0 -48 -79 0 c-92 0 -193 -18 -309 -55 -46 -15 -87 -24
-90 -21 -12 13 20 30 90 48 121 30 292 132 377 222 14 14 26 25 27 23 2 -2 -1
-30 -6 -63z m685 -33 c39 -11 85 -26 104 -34 l33 -14 -72 -57 c-53 -41 -80
-56 -104 -56 -47 0 -139 -26 -199 -56 -81 -41 -143 -92 -193 -161 l-46 -63
-99 0 c-73 0 -99 3 -99 13 0 32 44 167 72 218 116 219 316 288 603 210z m641
4 c11 -4 24 -20 30 -38 5 -18 21 -38 36 -47 25 -13 29 -13 57 8 30 22 32 22
63 6 18 -9 65 -49 105 -89 58 -60 82 -94 129 -189 49 -98 59 -127 62 -181 6
-95 2 -101 -54 -66 -25 17 -60 33 -76 36 -25 6 -35 17 -55 64 -40 90 -109 185
-165 229 -86 65 -113 75 -228 82 -58 4 -114 11 -125 15 -29 12 -184 109 -185
116 0 8 92 46 145 59 40 9 223 6 261 -5z m120 -60 c-10 -26 -60 -16 -64 13 -2
13 2 30 9 38 11 13 16 12 37 -10 16 -15 22 -30 18 -41z m-518 -49 c116 -59
116 -62 0 -55 -57 4 -123 7 -147 8 l-44 1 59 39 c32 22 60 40 62 40 1 1 33
-14 70 -33z m1534 -19 c144 -51 232 -73 333 -82 39 -3 83 -9 98 -12 27 -5 28
-6 11 -24 -34 -37 -201 -19 -369 41 -162 58 -249 81 -312 82 -53 1 -63 4 -63
19 0 45 136 34 302 -24z m-3029 -98 c-13 -56 -28 -110 -34 -121 -6 -10 -34
-34 -63 -53 -60 -38 -107 -88 -135 -143 -53 -105 -70 -319 -38 -483 14 -69 15
-101 7 -163 -11 -89 -1 -180 30 -270 22 -64 22 -62 -28 -125 l-19 -24 -63 38
c-77 47 -184 154 -229 228 -91 153 -109 290 -67 502 44 219 33 349 -36 422
l-21 22 29 6 c246 55 488 144 629 233 28 17 53 32 56 32 3 0 -5 -46 -18 -101z
m3040 -13 c98 -34 203 -62 251 -69 l84 -11 -21 -43 c-24 -48 -21 -68 27 -230
34 -112 49 -232 41 -326 -8 -95 -26 -160 -72 -252 l-34 -70 30 35 c41 46 77
124 96 202 23 100 18 290 -12 393 l-6 20 23 -20 c12 -11 36 -47 53 -80 30 -60
30 -61 38 -290 10 -277 3 -338 -58 -477 -14 -32 -28 -58 -32 -57 -3 0 -25 40
-48 88 -27 55 -63 111 -101 152 l-58 64 -3 192 c-2 207 10 296 50 360 32 51
23 64 -71 104 -73 31 -91 44 -128 90 -89 113 -111 135 -168 169 -32 19 -94 47
-137 61 l-80 26 24 17 c39 29 123 16 312 -48z m-2449 37 c-4 -10 -24 -65 -43
-122 l-36 -104 -67 -43 c-38 -24 -103 -79 -146 -123 -42 -43 -103 -95 -136
-115 -48 -31 -57 -41 -53 -59 3 -12 10 -40 16 -62 6 -22 11 -69 11 -105 1 -36
5 -74 9 -85 6 -14 2 -29 -11 -47 -10 -15 -30 -52 -44 -82 -21 -45 -34 -60 -79
-85 -62 -35 -121 -84 -137 -115 -6 -11 -14 -48 -18 -81 l-6 -60 -16 31 c-24
44 -40 155 -32 228 3 33 16 111 29 171 13 61 26 124 30 142 7 35 -8 73 -30 73
-16 0 -40 -61 -59 -150 l-14 -65 -1 110 c-1 101 15 225 37 300 26 86 66 134
175 212 27 19 58 55 77 88 38 66 68 87 165 116 104 32 199 47 299 48 80 1 87
-1 80 -16z m611 -57 c-62 -60 -125 -165 -125 -207 0 -23 -118 -54 -203 -53
-37 1 -70 4 -74 7 -12 13 53 121 104 171 83 84 215 143 326 145 l37 1 -65 -64z
m387 44 c18 -6 83 -7 145 -3 112 6 113 6 177 -26 80 -39 168 -132 220 -230 41
-78 42 -91 18 -183 l-18 -66 -23 50 c-28 61 -89 130 -135 152 -19 9 -52 16
-74 16 l-40 0 -27 70 c-17 44 -38 79 -58 96 -29 24 -36 26 -97 20 -95 -9 -99
-10 -95 -15 3 -2 -17 -19 -44 -37 -27 -18 -75 -58 -108 -88 l-59 -54 -54 14
c-30 8 -85 14 -122 14 -64 0 -68 1 -68 23 1 38 37 105 87 158 52 56 102 86
166 99 46 10 158 4 209 -10z m1133 -65 c140 -36 219 -91 309 -215 39 -55 84
-86 153 -106 29 -8 53 -17 53 -18 0 -2 -10 -25 -22 -52 -22 -46 -23 -63 -23
-264 -1 -118 -2 -219 -3 -224 -1 -5 -16 11 -34 35 -101 141 -205 224 -345 275
-68 25 -77 32 -114 85 -60 85 -113 116 -229 134 l-36 5 4 64 c4 67 -14 150
-49 218 l-19 37 52 15 c81 23 88 24 168 25 42 0 103 -6 135 -14z m-947 -89
c31 -36 69 -122 58 -133 -3 -4 -31 -5 -61 -4 -30 1 -69 -3 -88 -9 -26 -10 -41
-9 -80 4 -26 9 -70 16 -97 16 -28 0 -50 4 -50 9 0 14 117 117 153 135 18 8 55
16 83 16 47 0 55 -4 82 -34z m-1050 -102 c30 -6 30 -7 17 -38 -44 -99 -109
-279 -118 -329 l-11 -59 -14 38 c-24 69 -42 183 -42 268 0 82 9 108 40 119 21
8 92 8 128 1z m-201 -70 c12 -174 46 -351 78 -401 13 -20 12 -27 -12 -73 -23
-44 -26 -63 -25 -134 1 -110 28 -180 127 -331 11 -16 14 -26 7 -21 -31 19
-195 253 -231 329 -79 166 -109 324 -78 400 15 35 15 37 -3 37 -10 0 -26 -7
-34 -16 -21 -20 -21 -114 -1 -179 l14 -49 -43 -41 c-24 -23 -51 -56 -62 -73
-10 -18 -21 -32 -24 -32 -15 0 -32 83 -37 180 -3 58 -12 117 -19 132 -20 38
-19 40 31 67 25 13 79 61 120 107 74 81 159 148 179 141 6 -2 12 -21 13 -43z
m765 -9 c16 -6 15 -10 -7 -39 -13 -17 -28 -43 -34 -57 -9 -24 -15 -27 -79 -31
-114 -8 -182 -59 -264 -199 l-38 -64 -2 40 c-1 22 0 60 1 85 1 40 0 43 -11 25
-8 -12 -13 -58 -13 -117 -1 -93 -2 -99 -29 -127 -16 -17 -33 -28 -39 -24 -15
9 0 137 22 189 25 55 3 43 -25 -14 -13 -26 -20 -70 -24 -147 l-6 -110 -29 60
c-24 49 -30 76 -33 151 -5 116 19 197 84 281 25 32 49 64 53 71 6 11 16 12 45
3 30 -8 50 -6 99 9 34 10 71 21 82 24 26 7 225 -1 247 -9z m323 -14 c80 -38
185 -152 185 -201 0 -5 -45 12 -100 40 -149 75 -258 97 -339 69 -49 -17 -61 1
-28 44 61 80 175 99 282 48z m363 -10 c46 -32 90 -110 112 -196 25 -100 25
-148 -1 -202 -29 -59 -41 -54 -33 14 8 60 -4 67 -25 14 l-13 -29 -39 43 c-22
24 -53 48 -69 55 -20 8 -32 22 -36 39 -21 105 -49 162 -118 235 -23 25 -40 48
-38 51 2 2 55 3 118 1 95 -3 118 -7 142 -25z m318 -46 c118 -69 150 -291 69
-470 l-19 -40 -6 75 c-3 41 -14 89 -23 107 -21 40 -74 81 -121 94 -36 10 -36
11 -35 62 1 60 17 154 30 180 14 24 55 21 105 -8z m-726 -93 l55 -26 -80 -6
c-50 -4 -100 -15 -132 -29 -98 -43 -171 -150 -197 -288 l-12 -68 -13 52 c-26
107 9 205 94 261 58 37 49 43 -12 7 -24 -13 -43 -20 -43 -16 0 12 55 95 74
110 28 24 107 41 161 35 28 -3 75 -18 105 -32z m961 12 c78 -22 131 -69 171
-152 27 -57 33 -81 36 -158 5 -102 -10 -170 -57 -264 -38 -75 -86 -144 -77
-110 17 61 18 188 2 277 -21 121 -58 212 -111 271 -40 44 -79 127 -68 145 7
11 42 8 104 -9z m-1309 -19 c2 -3 -10 -35 -29 -71 -18 -37 -33 -71 -34 -78 0
-6 -27 -28 -60 -50 -59 -38 -100 -87 -114 -136 -6 -19 -1 -16 23 16 31 42 109
114 124 114 5 0 7 -8 4 -17 -12 -46 -15 -135 -7 -208 5 -44 8 -82 5 -84 -2 -2
-22 34 -44 80 -40 84 -44 68 -7 -26 10 -27 30 -81 43 -120 l24 -69 -45 44
c-30 29 -63 79 -93 139 -42 84 -47 103 -51 174 -6 134 38 225 130 271 47 23
117 35 131 21z m521 -79 c33 -14 84 -62 75 -71 -3 -3 -25 2 -49 11 -62 23
-178 23 -212 1 -15 -10 -46 -17 -74 -17 -46 0 -89 -8 -143 -25 l-25 -7 23 24
c33 36 115 79 170 88 78 13 200 11 235 -4z m28 -94 c32 -17 65 -44 81 -67 32
-45 51 -132 42 -183 l-7 -35 -23 63 c-30 78 -72 136 -126 172 -39 26 -122 57
-157 59 -41 2 29 18 80 18 44 1 69 -6 110 -27z m741 -43 c43 -84 61 -170 62
-294 1 -220 -67 -325 -334 -517 l-45 -33 62 80 c127 165 165 301 132 468 -9
42 -9 60 0 70 20 24 49 124 62 207 7 48 16 79 22 77 6 -2 23 -28 39 -58z
m-574 19 c54 -57 78 -153 52 -213 -7 -17 -9 -15 -9 13 -1 43 -36 144 -66 193
-31 47 -20 51 23 7z m302 9 c47 -31 71 -77 77 -145 6 -69 -7 -106 -69 -189
l-43 -58 -7 75 c-4 41 -11 135 -15 208 -9 148 -7 153 57 109z m659 -14 c91
-43 190 -136 223 -210 18 -38 22 -67 22 -143 1 -86 -2 -100 -29 -154 l-30 -59
-8 39 c-14 71 -24 56 -11 -18 17 -97 17 -209 0 -283 -8 -33 -35 -113 -60 -177
-50 -127 -59 -206 -32 -272 l14 -34 -46 -6 c-29 -4 -72 -23 -118 -51 -114 -71
-191 -103 -294 -121 -90 -15 -186 -14 -270 3 l-28 5 24 42 c13 22 24 57 24 76
0 29 9 44 55 89 66 65 135 193 135 251 0 36 1 37 88 79 165 79 176 86 198 130
11 23 34 55 52 71 41 37 41 65 0 90 l-31 19 29 6 c69 16 99 30 136 63 45 41
82 107 73 130 -4 12 -12 5 -31 -28 -49 -87 -97 -120 -198 -139 -67 -12 -118
-3 -159 29 l-26 21 34 45 c52 68 101 161 124 237 28 92 44 229 32 272 -8 32
-7 35 11 35 12 0 55 -16 97 -37z m-1267 -35 c66 -25 94 -42 137 -85 30 -29 52
-55 49 -58 -2 -3 -40 15 -84 40 -43 25 -92 49 -109 54 -16 4 -48 20 -69 35
-28 19 -52 26 -85 26 -33 0 -42 3 -31 10 30 19 107 10 192 -22z m-136 -23 c18
-14 18 -14 -8 -15 -55 0 -137 -40 -163 -78 -27 -40 -33 -30 -11 21 21 52 70
87 120 87 23 0 51 -7 62 -15z m594 -146 c-12 -35 -35 -87 -51 -116 -49 -86
-181 -195 -206 -170 -8 9 15 40 97 132 78 88 116 148 152 240 l23 60 3 -41 c2
-24 -6 -69 -18 -105z m-1691 42 c17 -59 131 -298 169 -353 52 -76 94 -109 207
-164 78 -38 123 -66 155 -100 l45 -46 -95 5 c-174 10 -355 91 -466 209 -150
159 -172 330 -61 480 24 32 29 29 46 -31z m313 -139 c-12 -46 -13 -71 -4 -132
6 -41 14 -84 17 -95 11 -33 -30 21 -67 90 -31 56 -33 66 -33 155 0 68 5 106
18 134 l17 38 33 -66 34 -66 -15 -58z m558 121 c1 -38 5 -88 10 -113 11 -57 5
-64 -15 -16 -20 48 -29 116 -21 160 11 59 26 41 26 -31z m281 57 c48 -13 118
-75 140 -124 23 -51 25 -144 4 -172 -14 -18 -15 -16 -9 22 10 69 -20 151 -76
206 -44 44 -51 48 -97 48 -59 0 -93 -25 -114 -83 -15 -42 -29 -48 -29 -14 0
37 34 89 71 109 38 20 59 22 110 8z m-733 -62 l-3 -23 -13 23 c-11 19 -11 26
0 39 12 15 13 15 16 0 2 -9 2 -27 0 -39z m968 -20 c34 -35 64 -88 64 -111 0
-8 -15 -26 -34 -40 l-33 -26 -6 46 c-3 25 -21 77 -41 115 -20 38 -36 71 -36
74 0 11 58 -27 86 -58z m-1592 29 c3 -13 16 -39 29 -59 19 -27 25 -52 29 -116
7 -119 53 -210 164 -319 l83 -83 -29 -57 c-16 -32 -34 -82 -41 -111 l-10 -52
-27 19 c-81 59 -194 200 -242 302 -75 163 -78 296 -9 437 33 67 44 75 53 39z
m766 -90 c5 -54 17 -114 25 -135 l15 -37 -24 27 c-36 40 -60 181 -40 233 10
26 13 14 24 -88z m613 71 c15 -20 18 -33 11 -55 l-8 -28 -4 28 c-2 15 -14 35
-28 43 -22 15 -39 15 -91 -2 -12 -4 -9 3 11 21 37 34 81 31 109 -7z m590 -103
c1 -63 -25 -140 -63 -185 l-29 -35 5 105 c5 83 11 118 32 168 l27 63 14 -33
c7 -18 14 -55 14 -83z m-934 -70 c10 -49 18 -92 16 -93 -2 -2 -13 15 -25 39
-16 30 -23 66 -26 123 -4 92 2 79 35 -69z m300 123 c-1 -18 -2 -19 -6 -5 -4
14 -8 16 -19 6 -19 -16 -18 -46 4 -58 14 -9 12 -10 -15 -11 -65 0 -80 21 -40
57 41 38 78 43 76 11z m-739 -100 c29 -111 81 -221 147 -309 71 -93 72 -97 23
-61 -148 108 -206 192 -217 310 -6 64 3 152 16 152 4 0 18 -41 31 -92z m90 8
c79 -132 119 -162 304 -229 173 -63 208 -67 315 -41 59 15 74 25 142 88 70 66
178 136 210 136 8 0 -29 -29 -81 -64 -52 -35 -124 -89 -160 -121 -112 -98
-152 -110 -250 -76 -31 11 -118 31 -195 46 -152 29 -193 46 -242 97 -50 52
-131 248 -103 248 5 0 32 -38 60 -84z m480 -36 c34 -66 58 -95 107 -131 38
-26 43 -33 29 -41 -22 -12 -79 16 -113 56 -45 53 -73 125 -72 186 l0 55 13
-40 c7 -22 23 -60 36 -85z m276 66 c-3 -12 -17 -28 -32 -35 -31 -14 -45 -7
-16 8 10 6 25 25 33 42 14 34 25 24 15 -15z m119 -42 c6 -33 3 -41 -16 -52
-19 -12 -21 -12 -15 3 3 9 6 40 6 68 1 59 15 48 25 -19z m-1697 -16 c-17 -109
26 -266 107 -389 25 -37 93 -113 150 -167 l105 -99 0 -59 c0 -35 10 -87 24
-126 12 -38 21 -68 18 -68 -17 0 -149 79 -199 120 -126 102 -199 222 -247 402
-14 54 -44 132 -66 174 -48 91 -54 148 -17 182 16 15 121 80 133 82 1 0 -3
-24 -8 -52z m977 -67 c5 -15 4 -21 -3 -17 -11 7 -43 104 -41 128 0 11 22 -44
44 -111z m1255 62 c-38 -116 -91 -189 -179 -248 -64 -42 -161 -90 -161 -79 0
2 55 62 123 132 67 70 144 153 171 185 27 32 51 55 53 53 3 -3 -1 -22 -7 -43z
m48 -113 c-5 -40 -22 -88 -42 -124 -36 -67 -63 -88 -45 -36 6 17 9 47 7 68 -4
26 2 51 18 84 13 25 31 75 41 110 l18 63 7 -50 c3 -27 2 -79 -4 -115z m911 90
c71 -85 96 -131 134 -251 19 -57 44 -124 56 -147 21 -40 21 -42 2 -52 -30 -16
-59 -71 -96 -181 -39 -117 -101 -217 -174 -279 -50 -43 -148 -96 -196 -105
l-30 -6 24 20 c13 12 31 21 41 21 25 0 29 18 18 81 -16 84 -3 166 42 286 54
142 69 251 48 345 l-15 67 34 69 c23 46 36 89 40 130 3 34 9 62 14 62 5 0 31
-27 58 -60z m-1782 44 c-3 -3 -12 -4 -19 -1 -8 3 -5 6 6 6 11 1 17 -2 13 -5z
m83 -4 c-20 -13 -63 -13 -55 0 3 6 21 10 38 10 24 0 28 -3 17 -10z m-30 -32
c36 0 78 5 93 11 27 10 28 10 22 -11 -4 -13 -9 -32 -12 -43 -8 -30 -22 -35
-93 -35 -76 0 -101 13 -130 70 l-20 39 38 -16 c21 -9 64 -15 102 -15z m-280
-93 c10 -11 22 -33 26 -50 l7 -30 -27 24 c-28 27 -61 89 -71 136 -6 26 -3 24
20 -15 15 -25 35 -54 45 -65z m-146 31 c25 -33 44 -61 42 -63 -16 -16 -62 39
-86 102 -13 35 -14 36 44 -39z m222 17 c15 -26 47 -69 72 -95 l44 -47 -35 -6
c-61 -12 -72 -2 -99 88 -21 70 -26 107 -13 107 2 0 16 -21 31 -47z m708 -29
c-43 -166 -175 -255 -376 -253 -137 1 -170 15 -83 34 89 20 400 196 441 251
15 19 28 33 30 31 2 -2 -3 -30 -12 -63z m-451 -34 c35 -1 39 -2 24 -11 -22
-13 -76 -4 -103 16 -18 14 -17 14 9 5 16 -5 47 -10 70 -10z m217 11 c0 -16
-82 -81 -135 -108 -50 -25 -50 -25 -30 -3 22 26 146 120 158 120 4 0 7 -4 7
-9z m-635 -149 c116 -21 150 -31 300 -88 39 -14 131 -39 205 -54 129 -26 133
-27 110 -42 -37 -22 -317 -52 -442 -46 -112 5 -129 11 -201 72 -45 37 -187
196 -187 209 0 3 21 -3 48 -13 26 -10 101 -27 167 -38z m1063 16 c-17 -47 -86
-109 -217 -195 -64 -42 -150 -102 -191 -133 -105 -80 -130 -91 -224 -97 l-81
-4 50 28 c61 35 146 94 246 171 41 32 131 91 200 130 68 39 144 85 169 101 57
38 61 38 48 -1z m411 13 c20 -11 68 -29 105 -41 l68 -22 -26 -27 c-14 -15 -33
-48 -42 -74 -19 -58 -32 -67 -208 -152 -77 -36 -152 -80 -167 -96 -54 -57
-210 -113 -354 -125 l-80 -6 40 42 c56 59 129 113 289 215 154 98 234 167 291
250 21 30 40 55 42 55 2 0 21 -9 42 -19z m-2697 -54 c14 -23 38 -89 52 -147
31 -129 77 -224 150 -312 84 -101 222 -198 330 -232 31 -10 56 -23 56 -30 0
-6 18 -47 40 -90 39 -79 39 -79 20 -103 -32 -41 -92 -84 -160 -116 -175 -83
-370 -6 -532 213 -43 58 -118 148 -167 200 -92 100 -121 143 -121 183 0 28
105 246 152 316 30 44 137 161 148 161 3 0 17 -19 32 -43z m3602 -56 c108 -86
255 -245 283 -307 23 -51 25 -65 21 -143 -6 -102 -32 -183 -117 -370 -87 -190
-103 -241 -109 -348 -4 -92 -5 -93 -28 -87 -47 12 -93 -8 -204 -86 -99 -70
-309 -196 -314 -188 -1 2 -7 34 -14 73 l-11 70 84 78 c155 144 268 323 301
478 23 105 14 241 -20 345 l-27 80 20 84 c24 95 40 125 82 148 35 20 35 24 5
135 -14 48 -22 87 -19 87 3 0 33 -22 67 -49z m-1332 -33 c-17 -24 -81 -101
-142 -173 -62 -71 -125 -149 -141 -172 -32 -46 -24 -43 -182 -63 -48 -6 -95
-14 -105 -17 -25 -10 64 88 134 145 33 28 119 87 190 132 154 97 226 152 250
188 10 15 19 21 21 15 3 -7 -9 -32 -25 -55z m-2537 -38 c4 -6 -19 -62 -51
-126 -50 -100 -57 -122 -57 -173 0 -73 22 -113 126 -227 41 -45 103 -119 138
-165 122 -160 212 -230 349 -270 69 -19 84 -28 101 -56 21 -34 115 -123 130
-123 5 0 9 -4 9 -10 0 -5 -24 -10 -52 -10 -98 0 -188 27 -326 95 -141 71 -257
114 -387 145 -53 13 -86 27 -97 41 -22 26 -48 114 -89 294 -17 77 -47 181 -66
230 -54 140 -55 132 24 201 100 88 203 164 224 164 10 0 21 -5 24 -10z m963
-23 c7 -6 20 -27 28 -46 39 -93 119 -164 202 -177 27 -4 42 -12 42 -21 0 -8
17 -47 37 -86 67 -127 233 -276 386 -347 106 -50 168 -61 374 -68 105 -4 195
-11 200 -15 21 -23 -159 -142 -279 -185 -59 -21 -91 -26 -168 -26 -110 0 -164
14 -320 81 -58 25 -141 58 -185 73 -125 42 -164 66 -256 159 -101 102 -151
184 -180 302 -25 98 -22 183 10 273 37 105 60 122 109 83z m437 -83 c114 -28
131 -29 352 -29 l232 0 -57 -29 c-112 -57 -211 -86 -295 -86 -84 0 -421 53
-473 75 -36 15 -114 82 -114 98 0 20 227 1 355 -29z m61 -169 c108 -22 153
-25 322 -25 l195 0 -24 -26 c-40 -43 -101 -73 -176 -85 -101 -18 -206 4 -338
70 -55 28 -111 60 -125 71 l-25 20 23 0 c12 0 79 -11 148 -25z m1294 19 c0
-22 -73 -137 -111 -175 -83 -85 -233 -137 -352 -124 -55 6 -399 79 -437 93
-21 8 110 28 339 51 256 27 362 55 494 131 52 30 67 35 67 24z m-1239 -169
c46 -14 149 -39 227 -55 79 -17 214 -49 300 -71 133 -34 177 -41 287 -46 100
-3 141 -1 180 11 27 8 51 14 53 12 8 -9 -30 -65 -67 -99 -58 -52 -125 -70
-224 -57 -42 5 -146 12 -230 16 -83 3 -181 12 -216 20 -142 32 -291 117 -406
234 l-59 60 35 0 c20 0 73 -11 120 -25z m2189 -109 c36 -206 -43 -413 -233
-612 -90 -94 -159 -145 -370 -272 -155 -93 -207 -112 -305 -111 -42 1 -87 4
-100 7 -21 7 -19 10 35 55 74 62 134 135 167 204 60 120 82 288 53 400 l-13
51 71 4 c81 5 145 34 215 98 29 26 59 43 94 51 127 29 254 112 321 210 l30 42
12 -29 c6 -16 17 -60 23 -98z m-980 -216 c125 -10 128 -12 155 -90 58 -166 -3
-391 -144 -530 -81 -80 -133 -106 -396 -198 -247 -87 -293 -96 -437 -90 -128
6 -228 36 -339 103 -112 68 -219 185 -219 238 0 10 18 17 57 22 141 17 278 79
368 166 34 33 70 59 81 59 38 0 170 42 242 76 40 19 98 55 128 80 l56 46 40
-39 c21 -21 64 -75 95 -120 57 -86 90 -122 76 -87 -19 53 -101 172 -161 236
-30 31 -33 40 -22 53 7 8 24 15 39 15 43 0 94 18 141 50 37 24 52 28 86 24 23
-3 92 -9 154 -14z m-1582 -102 c75 -22 178 -59 227 -81 50 -21 120 -52 157
-68 36 -16 105 -39 153 -52 l87 -23 -53 -37 c-130 -89 -268 -121 -484 -115
-171 6 -257 27 -398 100 -122 63 -220 168 -157 168 35 0 134 45 216 99 44 28
87 51 97 51 10 0 79 -19 155 -42z m-1143 -107 c140 -34 345 -118 345 -141 0
-4 -7 -14 -16 -21 -9 -7 -20 -23 -24 -35 -8 -19 -14 -22 -52 -18 -120 14 -187
36 -352 119 -148 74 -165 86 -145 94 69 26 141 26 244 2z m510 -238 c96 -36
267 -53 320 -33 22 8 46 3 128 -25 97 -33 151 -43 261 -48 l50 -3 34 -67 c101
-199 439 -365 702 -343 76 6 255 47 292 67 38 21 29 1 -14 -29 -49 -34 -149
-85 -258 -132 -98 -42 -297 -162 -360 -218 -35 -30 -50 -39 -50 -27 0 29 -37
89 -82 131 -78 75 -143 110 -353 189 -38 14 -128 55 -200 92 -106 54 -140 67
-190 70 -72 6 -155 -14 -273 -64 -45 -19 -89 -32 -97 -29 -12 4 -15 28 -15
120 0 63 -7 150 -15 193 -18 93 -19 175 -3 191 8 8 20 7 47 -5 20 -8 54 -22
76 -30z m2809 -185 c3 -13 6 -60 6 -106 0 -98 -19 -159 -85 -271 l-45 -78
-158 -6 c-231 -8 -364 -40 -672 -161 -184 -73 -216 -83 -465 -150 -137 -37
-282 -90 -341 -125 -19 -12 -37 -21 -40 -21 -2 0 7 22 20 48 59 117 270 266
551 392 179 80 285 150 328 216 17 26 36 39 85 55 57 19 70 20 123 10 77 -15
192 -15 255 0 72 17 174 67 304 147 63 39 118 72 121 72 4 0 9 -10 13 -22z
m-2072 -459 c198 -65 288 -121 327 -203 24 -49 22 -60 -23 -126 -16 -24 -40
-68 -52 -97 l-21 -53 -38 62 c-57 92 -157 229 -236 323 -60 71 -98 108 -178
172 -9 7 11 1 43 -13 33 -14 113 -43 178 -65z"/>
<path d="M2320 2560 c82 -31 210 -50 319 -49 l96 2 -65 8 c-69 10 -324 47
-375 55 -17 2 -6 -5 25 -16z"/>
</g>
</svg>